M48
;Layer_Color=9474304
;FILE_FORMAT=2:4
INCH
;TYPE=PLATED
T1F00S00C0.0200
T2F00S00C0.0250
T3F00S00C0.0280
T4F00S00C0.0354
%
T01
X040320Y016490
T02
X015954Y023410
X016954
X017954
Y026410
X016954
X015954
X014954
X013954
X012954
X011954
X010954
Y023410
X011954
X012954
X013954
X014954
T03
X006120Y014680
X008720Y013550
X012162Y013950
X012750Y015030
X015470Y014850
X011130Y011680
X015850Y011660
X016400Y014380
X017550Y015440
X023130Y013820
X033730Y014170
X034280Y013690
X034630Y013080
X034650Y012370
X034670Y011660
X035390Y011650
X035360Y010940
X036730
X036780Y011660
X036750Y012370
X036760Y013080
X036220Y013690
X035650Y014170
X039430Y015270
X042140Y013920
X043510
X043430Y015210
X046410Y014730
X041880Y010980
X037940Y010950
X039130Y017330
X041340Y017690
X042530Y019110
X044160Y019090
X043460Y016440
X042614Y023964
X041110Y023690
X040680Y030220
X043710Y030190
X046180Y030250
X045090Y027450
X046590Y026130
X034090Y025660
X031880Y030970
X032080Y019020
X034350Y018300
X030490Y017570
X029530Y019360
X029540Y020190
X029521Y021661
X028000Y021900
X028120Y022780
X027420Y022740
X026790Y022720
X026140Y022730
X025510Y022750
X025440Y021910
X025030Y021260
X024800Y022340
X023320Y021870
X023560Y023220
X022900Y020570
X023440Y018840
X025040Y019350
X025530Y019780
X026499Y018190
X027060Y018470
X026140Y016690
X025600Y016370
X024900Y016600
X020220Y018190
Y020470
X018830Y021330
X018850Y022060
X018880Y022970
X018900Y024850
X016970Y024800
X015960Y024820
X016230Y028510
X019180Y027850
X019860
X020570Y027870
X021260Y027860
X022180Y025350
X026730Y024280
X029440Y024270
X030880
X028880Y030980
X024180Y030240
X017330Y016940
X018210Y016040
X013775Y016045
X013835Y017045
X013060Y017620
X013020Y020470
X014110Y020570
X014460Y022690
X013970Y024460
Y025290
X014990Y025260
X014980Y024440
X014470Y027220
X009410Y030020
X008160Y030690
X007440Y029980
X008050Y025710
X010240Y017460
X010390Y016070
T04
X004780Y010950
Y011950
X023880Y012430
Y011430
X024880
X025880
X026880
X027880
X028880
X029880
X030880
Y012430
X029880
X028880
X027880
X026880
X025880
X024880
X031880
Y011430
X032880
Y012430
X047440Y011940
Y010940
X047550Y020300
Y021300
Y022300
Y023300
X047540Y028260
Y029260
X043310Y020260
X042310
X041310
X040310
X039310
X038310
X037310
X036310
X032880Y028430
Y029430
X031880
Y028430
X030880
Y029430
X029880
Y028430
X028880
Y029430
X027880
Y028430
X026880
Y029430
X025880
Y028430
X024880
Y029430
X023880
Y028430
X021200Y031110
X020200
X019200
X018200
X015890Y031080
X021250Y024730
Y023730
Y022730
Y021730
Y020730
Y019730
Y018730
Y017730
Y016730
Y015730
X016001Y019250
X015001
X014001
X013002
X012002
X011001
X004740Y019700
Y020700
Y018700
Y017700
X004770Y027300
Y028300
X009304Y028264
Y027264
Y025604
Y024604
X014890Y031080
M30
