G04 Layer_Color=8388736*
%FSLAX25Y25*%
%MOIN*%
G70*
G01*
G75*
%ADD52O,0.01784X0.04147*%
%ADD53O,0.04147X0.01784*%
%ADD54R,0.11036X0.10642*%
%ADD55O,0.01981X0.06509*%
%ADD56O,0.06509X0.01981*%
%ADD57R,0.04737X0.06115*%
%ADD58R,0.06509X0.05918*%
%ADD59R,0.06115X0.04737*%
%ADD60R,0.03162X0.04737*%
%ADD61R,0.05918X0.04934*%
%ADD62R,0.04934X0.06115*%
%ADD63R,0.06115X0.04934*%
%ADD64R,0.04934X0.05918*%
%ADD65R,0.05918X0.06509*%
%ADD66R,0.05249X0.06587*%
%ADD67O,0.06115X0.02572*%
%ADD68R,0.09068X0.07099*%
%ADD69R,0.07887X0.08280*%
%ADD70R,0.08280X0.08280*%
%ADD71R,0.02375X0.06115*%
%ADD72R,0.03044X0.03241*%
%ADD73R,0.05721X0.13398*%
%ADD74R,0.05721X0.04737*%
%ADD75R,0.04540X0.06115*%
%ADD76R,0.05918X0.16548*%
%ADD77R,0.07099X0.16548*%
%ADD78O,0.05800X0.10800*%
%ADD79R,0.05800X0.10800*%
%ADD80R,0.06706X0.06706*%
%ADD81C,0.06706*%
%ADD82R,0.06706X0.06706*%
D52*
X407137Y172380D02*
D03*
X405168D02*
D03*
X403200D02*
D03*
X401231D02*
D03*
X399263D02*
D03*
Y157420D02*
D03*
X401231D02*
D03*
X403200D02*
D03*
X405168D02*
D03*
X407137D02*
D03*
D53*
X395720Y168837D02*
D03*
Y166868D02*
D03*
Y164900D02*
D03*
Y162932D02*
D03*
Y160963D02*
D03*
X410680D02*
D03*
Y162932D02*
D03*
Y164900D02*
D03*
Y166868D02*
D03*
Y168837D02*
D03*
D54*
X403200Y164900D02*
D03*
D55*
X285780Y174387D02*
D03*
X287748D02*
D03*
X281842D02*
D03*
X283811D02*
D03*
X293653D02*
D03*
X295622D02*
D03*
X289717D02*
D03*
X291685D02*
D03*
X272000D02*
D03*
X273969D02*
D03*
X268063D02*
D03*
X270031D02*
D03*
X277906D02*
D03*
X279874D02*
D03*
X275937D02*
D03*
X264126D02*
D03*
X266094D02*
D03*
X260189D02*
D03*
X262158D02*
D03*
X258221D02*
D03*
X254283D02*
D03*
X256252D02*
D03*
X252315D02*
D03*
X248378D02*
D03*
X250346D02*
D03*
X285780Y235213D02*
D03*
X287748D02*
D03*
X281842D02*
D03*
X283811D02*
D03*
X293653D02*
D03*
X295622D02*
D03*
X289717D02*
D03*
X291685D02*
D03*
X272000D02*
D03*
X273969D02*
D03*
X268063D02*
D03*
X270031D02*
D03*
X277906D02*
D03*
X279874D02*
D03*
X275937D02*
D03*
X260189D02*
D03*
X266094D02*
D03*
X262158D02*
D03*
X264126D02*
D03*
X250346D02*
D03*
X252315D02*
D03*
X248378D02*
D03*
X256252D02*
D03*
X258221D02*
D03*
X254283D02*
D03*
D56*
X302413Y185115D02*
D03*
Y187083D02*
D03*
Y181178D02*
D03*
Y183147D02*
D03*
Y192989D02*
D03*
Y194957D02*
D03*
Y189052D02*
D03*
Y191021D02*
D03*
Y200863D02*
D03*
Y202832D02*
D03*
Y196926D02*
D03*
Y198895D02*
D03*
Y204800D02*
D03*
X241587Y181178D02*
D03*
Y183147D02*
D03*
Y185115D02*
D03*
Y189052D02*
D03*
Y191021D02*
D03*
Y187083D02*
D03*
Y196926D02*
D03*
Y198895D02*
D03*
Y192989D02*
D03*
Y194957D02*
D03*
Y202832D02*
D03*
Y204800D02*
D03*
Y200863D02*
D03*
X302413Y210705D02*
D03*
Y212674D02*
D03*
Y206768D02*
D03*
Y208737D02*
D03*
Y224485D02*
D03*
Y214643D02*
D03*
Y216611D02*
D03*
Y222516D02*
D03*
Y226453D02*
D03*
Y218580D02*
D03*
Y220548D02*
D03*
Y228422D02*
D03*
X241587Y210705D02*
D03*
Y212674D02*
D03*
Y206768D02*
D03*
Y208737D02*
D03*
Y214643D02*
D03*
Y222516D02*
D03*
Y220548D02*
D03*
Y224485D02*
D03*
Y216611D02*
D03*
Y218580D02*
D03*
Y226453D02*
D03*
Y228422D02*
D03*
D57*
X320757Y198700D02*
D03*
X327843D02*
D03*
X116886Y292442D02*
D03*
X109799D02*
D03*
X426143Y249310D02*
D03*
X419057D02*
D03*
X109756Y280443D02*
D03*
X116842D02*
D03*
X427700Y152100D02*
D03*
X420613D02*
D03*
D58*
X317300Y210450D02*
D03*
Y216750D02*
D03*
X329700Y210450D02*
D03*
Y216750D02*
D03*
X266000Y143201D02*
D03*
Y149500D02*
D03*
X278400Y143201D02*
D03*
Y149500D02*
D03*
X112015Y167550D02*
D03*
Y161250D02*
D03*
X116615Y134499D02*
D03*
Y128200D02*
D03*
X153515Y134499D02*
D03*
Y128200D02*
D03*
X421500Y183199D02*
D03*
Y176900D02*
D03*
X434100Y183299D02*
D03*
Y177000D02*
D03*
X398800Y132399D02*
D03*
Y126100D02*
D03*
D59*
X475400Y261457D02*
D03*
Y268543D02*
D03*
X47700Y259387D02*
D03*
Y252300D02*
D03*
X474400Y140500D02*
D03*
Y147587D02*
D03*
X47900Y140057D02*
D03*
Y147143D02*
D03*
X223800Y134513D02*
D03*
Y141600D02*
D03*
X141115Y134687D02*
D03*
Y127600D02*
D03*
X128915Y134687D02*
D03*
Y127600D02*
D03*
X165915Y134687D02*
D03*
Y127600D02*
D03*
X104215Y134687D02*
D03*
Y127600D02*
D03*
X384400Y169787D02*
D03*
Y162700D02*
D03*
D60*
X127502Y284118D02*
D03*
X134983D02*
D03*
X131243Y293567D02*
D03*
D61*
X400116Y249310D02*
D03*
X407400D02*
D03*
D62*
X438513Y269155D02*
D03*
Y261675D02*
D03*
X382400Y269191D02*
D03*
Y261710D02*
D03*
X447100Y182180D02*
D03*
Y174700D02*
D03*
D63*
X378480Y290710D02*
D03*
X371000D02*
D03*
X247560Y270000D02*
D03*
X255040D02*
D03*
X164995Y168500D02*
D03*
X157515D02*
D03*
D64*
X211700Y141900D02*
D03*
Y134616D02*
D03*
X165915Y116000D02*
D03*
Y108716D02*
D03*
X104215Y116000D02*
D03*
Y108716D02*
D03*
D65*
X254399Y259800D02*
D03*
X248100D02*
D03*
X254450Y247800D02*
D03*
X248150D02*
D03*
X164414Y155900D02*
D03*
X158115D02*
D03*
X427399Y164400D02*
D03*
X421100D02*
D03*
X347301Y171400D02*
D03*
X353600D02*
D03*
X347301Y158900D02*
D03*
X353600D02*
D03*
X380350Y151200D02*
D03*
X386650D02*
D03*
X380350Y138500D02*
D03*
X386650D02*
D03*
X380301Y126100D02*
D03*
X386600D02*
D03*
D66*
X275468Y161800D02*
D03*
X268500D02*
D03*
D67*
X145546Y175450D02*
D03*
Y172950D02*
D03*
Y177950D02*
D03*
Y167950D02*
D03*
Y170450D02*
D03*
Y165450D02*
D03*
Y162950D02*
D03*
Y157950D02*
D03*
Y160450D02*
D03*
Y155450D02*
D03*
X124484Y177950D02*
D03*
Y172950D02*
D03*
Y175450D02*
D03*
Y170450D02*
D03*
Y167950D02*
D03*
Y162950D02*
D03*
Y165450D02*
D03*
Y155450D02*
D03*
Y157950D02*
D03*
Y160450D02*
D03*
D68*
X147244Y115739D02*
D03*
X122835D02*
D03*
D69*
X120079Y105700D02*
D03*
X150000D02*
D03*
D70*
X139764D02*
D03*
X130315D02*
D03*
D71*
X140157Y116232D02*
D03*
X137598D02*
D03*
X135039D02*
D03*
X132480D02*
D03*
X129921D02*
D03*
D72*
X396899Y142700D02*
D03*
X400600D02*
D03*
X413600Y141300D02*
D03*
X409899D02*
D03*
X409900Y132400D02*
D03*
X413601D02*
D03*
D73*
X344425Y270755D02*
D03*
X399625D02*
D03*
D74*
X371000Y279810D02*
D03*
Y270755D02*
D03*
Y261700D02*
D03*
X426200Y279810D02*
D03*
Y270755D02*
D03*
Y261700D02*
D03*
D75*
X373200Y163200D02*
D03*
X364539D02*
D03*
X373200Y177373D02*
D03*
X364539D02*
D03*
D76*
X408839Y109274D02*
D03*
X388761D02*
D03*
D77*
X398800D02*
D03*
D78*
X179545Y264100D02*
D03*
X169545D02*
D03*
X159545D02*
D03*
X149545D02*
D03*
X139545D02*
D03*
X129545D02*
D03*
X119545D02*
D03*
X109545D02*
D03*
X179545Y234100D02*
D03*
X169545D02*
D03*
X159545D02*
D03*
X149545D02*
D03*
X139545D02*
D03*
X129545D02*
D03*
X119545D02*
D03*
D79*
X109545D02*
D03*
D80*
X475400Y282600D02*
D03*
X475500Y203000D02*
D03*
X47400Y177000D02*
D03*
X93042Y272642D02*
D03*
Y256043D02*
D03*
X47700Y273000D02*
D03*
X474400Y119400D02*
D03*
X47800Y119500D02*
D03*
X212500Y157300D02*
D03*
D81*
X475400Y292600D02*
D03*
X158900Y310800D02*
D03*
X212000Y311100D02*
D03*
X202000D02*
D03*
X192000D02*
D03*
X475500Y233000D02*
D03*
Y223000D02*
D03*
Y213000D02*
D03*
X47400Y207000D02*
D03*
Y197000D02*
D03*
Y187000D02*
D03*
X93042Y282643D02*
D03*
Y246042D02*
D03*
X47700Y283000D02*
D03*
X474400Y109400D02*
D03*
X47800Y109500D02*
D03*
X318800Y114300D02*
D03*
X328800D02*
D03*
X298800D02*
D03*
X308800D02*
D03*
X278800D02*
D03*
X288800D02*
D03*
X268800D02*
D03*
X258800D02*
D03*
X238800D02*
D03*
X248800D02*
D03*
X318800Y124300D02*
D03*
X308800D02*
D03*
X288800D02*
D03*
X298800D02*
D03*
X268800D02*
D03*
X278800D02*
D03*
X258800D02*
D03*
X248800D02*
D03*
X238800D02*
D03*
X373100Y202600D02*
D03*
X383100D02*
D03*
X393100D02*
D03*
X403100D02*
D03*
X413100D02*
D03*
X423100D02*
D03*
X433100D02*
D03*
X150015Y192500D02*
D03*
X140015D02*
D03*
X130015D02*
D03*
X120015D02*
D03*
X110015D02*
D03*
X328800Y284300D02*
D03*
X318800Y294300D02*
D03*
Y284300D02*
D03*
X308800Y294300D02*
D03*
Y284300D02*
D03*
X298800Y294300D02*
D03*
Y284300D02*
D03*
X288800Y294300D02*
D03*
Y284300D02*
D03*
X278800Y294300D02*
D03*
Y284300D02*
D03*
X268800Y294300D02*
D03*
Y284300D02*
D03*
X258800Y294300D02*
D03*
Y284300D02*
D03*
X248800Y294300D02*
D03*
Y284300D02*
D03*
X238800Y294300D02*
D03*
Y284300D02*
D03*
X212500Y217300D02*
D03*
Y227300D02*
D03*
Y237300D02*
D03*
Y167300D02*
D03*
Y177300D02*
D03*
Y207300D02*
D03*
Y247300D02*
D03*
Y187300D02*
D03*
Y197300D02*
D03*
D82*
X148900Y310800D02*
D03*
X182000Y311100D02*
D03*
X328800Y124300D02*
D03*
X363100Y202600D02*
D03*
X160015Y192500D02*
D03*
X328800Y294300D02*
D03*
M02*
