G04 Layer_Color=8421504*
%FSLAX25Y25*%
%MOIN*%
G70*
G01*
G75*
%ADD10R,0.06299X0.15748*%
%ADD11R,0.05118X0.15748*%
%ADD12R,0.03740X0.05315*%
%ADD13R,0.04921X0.03937*%
%ADD14R,0.04921X0.12598*%
%ADD15R,0.05118X0.05709*%
%ADD16R,0.05709X0.05118*%
%ADD17R,0.02244X0.02441*%
%ADD18R,0.03937X0.05315*%
%ADD19R,0.05315X0.03937*%
%ADD20R,0.04134X0.05315*%
%ADD21R,0.01575X0.05315*%
%ADD22R,0.07480X0.07480*%
%ADD23R,0.07087X0.07480*%
%ADD24R,0.08268X0.06299*%
%ADD25R,0.04134X0.05118*%
%ADD26R,0.05315X0.04134*%
%ADD27O,0.05315X0.01772*%
%ADD28R,0.04449X0.05787*%
%ADD29R,0.05118X0.04134*%
%ADD30R,0.02362X0.03937*%
%ADD31O,0.01181X0.05709*%
%ADD32O,0.05709X0.01181*%
%ADD33R,0.10236X0.09843*%
%ADD34O,0.03347X0.00984*%
%ADD35O,0.00984X0.03347*%
D10*
X398800Y109274D02*
D03*
D11*
X388761D02*
D03*
X408839D02*
D03*
D12*
X364539Y177373D02*
D03*
X373200D02*
D03*
X364539Y163200D02*
D03*
X373200D02*
D03*
D13*
X426200Y261700D02*
D03*
Y270755D02*
D03*
Y279810D02*
D03*
X371000Y261700D02*
D03*
Y270755D02*
D03*
Y279810D02*
D03*
D14*
X399625Y270755D02*
D03*
X344425D02*
D03*
D15*
X386600Y126100D02*
D03*
X380301D02*
D03*
X386650Y138500D02*
D03*
X380350D02*
D03*
X386650Y151200D02*
D03*
X380350D02*
D03*
X353600Y158900D02*
D03*
X347301D02*
D03*
X353600Y171400D02*
D03*
X347301D02*
D03*
X421100Y164400D02*
D03*
X427399D02*
D03*
X158115Y155900D02*
D03*
X164414D02*
D03*
X248150Y247800D02*
D03*
X254450D02*
D03*
X248100Y259800D02*
D03*
X254399D02*
D03*
D16*
X398800Y126100D02*
D03*
Y132399D02*
D03*
X434100Y177000D02*
D03*
Y183299D02*
D03*
X421500Y176900D02*
D03*
Y183199D02*
D03*
X153515Y128200D02*
D03*
Y134499D02*
D03*
X116615Y128200D02*
D03*
Y134499D02*
D03*
X112015Y161250D02*
D03*
Y167550D02*
D03*
X278400Y149500D02*
D03*
Y143201D02*
D03*
X266000Y149500D02*
D03*
Y143201D02*
D03*
X329700Y216750D02*
D03*
Y210450D02*
D03*
X317300Y216750D02*
D03*
Y210450D02*
D03*
D17*
X413601Y132400D02*
D03*
X409900D02*
D03*
X409899Y141300D02*
D03*
X413600D02*
D03*
X400600Y142700D02*
D03*
X396899D02*
D03*
D18*
X420613Y152100D02*
D03*
X427700D02*
D03*
X116842Y280443D02*
D03*
X109756D02*
D03*
X419057Y249310D02*
D03*
X426143D02*
D03*
X109799Y292442D02*
D03*
X116886D02*
D03*
X327843Y198700D02*
D03*
X320757D02*
D03*
D19*
X384400Y162700D02*
D03*
Y169787D02*
D03*
X104215Y127600D02*
D03*
Y134687D02*
D03*
X165915Y127600D02*
D03*
Y134687D02*
D03*
X128915Y127600D02*
D03*
Y134687D02*
D03*
X141115Y127600D02*
D03*
Y134687D02*
D03*
X223800Y141600D02*
D03*
Y134513D02*
D03*
X47900Y147143D02*
D03*
Y140057D02*
D03*
X474400Y147587D02*
D03*
Y140500D02*
D03*
X47700Y252300D02*
D03*
Y259387D02*
D03*
X475400Y268543D02*
D03*
Y261457D02*
D03*
D20*
X447100Y174700D02*
D03*
Y182180D02*
D03*
X382400Y261710D02*
D03*
Y269191D02*
D03*
X438513Y261675D02*
D03*
Y269155D02*
D03*
D21*
X129921Y116232D02*
D03*
X132480D02*
D03*
X135039D02*
D03*
X137598D02*
D03*
X140157D02*
D03*
D22*
X130315Y105700D02*
D03*
X139764D02*
D03*
D23*
X150000D02*
D03*
X120079D02*
D03*
D24*
X122835Y115739D02*
D03*
X147244D02*
D03*
D25*
X104215Y108716D02*
D03*
Y116000D02*
D03*
X165915Y108716D02*
D03*
Y116000D02*
D03*
X211700Y134616D02*
D03*
Y141900D02*
D03*
D26*
X157515Y168500D02*
D03*
X164995D02*
D03*
X255040Y270000D02*
D03*
X247560D02*
D03*
X371000Y290710D02*
D03*
X378480D02*
D03*
D27*
X124484Y160450D02*
D03*
Y157950D02*
D03*
Y155450D02*
D03*
Y165450D02*
D03*
Y162950D02*
D03*
Y167950D02*
D03*
Y170450D02*
D03*
Y175450D02*
D03*
Y172950D02*
D03*
Y177950D02*
D03*
X145546Y155450D02*
D03*
Y160450D02*
D03*
Y157950D02*
D03*
Y162950D02*
D03*
Y165450D02*
D03*
Y170450D02*
D03*
Y167950D02*
D03*
Y177950D02*
D03*
Y172950D02*
D03*
Y175450D02*
D03*
D28*
X268500Y161800D02*
D03*
X275468D02*
D03*
D29*
X407400Y249310D02*
D03*
X400116D02*
D03*
D30*
X131243Y293567D02*
D03*
X134983Y284118D02*
D03*
X127502D02*
D03*
D31*
X254283Y235213D02*
D03*
X258221D02*
D03*
X256252D02*
D03*
X248378D02*
D03*
X252315D02*
D03*
X250346D02*
D03*
X264126D02*
D03*
X262158D02*
D03*
X266094D02*
D03*
X260189D02*
D03*
X275937D02*
D03*
X279874D02*
D03*
X277906D02*
D03*
X270031D02*
D03*
X268063D02*
D03*
X273969D02*
D03*
X272000D02*
D03*
X291685D02*
D03*
X289717D02*
D03*
X295622D02*
D03*
X293653D02*
D03*
X283811D02*
D03*
X281842D02*
D03*
X287748D02*
D03*
X285780D02*
D03*
X250346Y174387D02*
D03*
X248378D02*
D03*
X252315D02*
D03*
X256252D02*
D03*
X254283D02*
D03*
X258221D02*
D03*
X262158D02*
D03*
X260189D02*
D03*
X266094D02*
D03*
X264126D02*
D03*
X275937D02*
D03*
X279874D02*
D03*
X277906D02*
D03*
X270031D02*
D03*
X268063D02*
D03*
X273969D02*
D03*
X272000D02*
D03*
X291685D02*
D03*
X289717D02*
D03*
X295622D02*
D03*
X293653D02*
D03*
X283811D02*
D03*
X281842D02*
D03*
X287748D02*
D03*
X285780D02*
D03*
D32*
X241587Y228422D02*
D03*
Y226453D02*
D03*
Y218580D02*
D03*
Y216611D02*
D03*
Y224485D02*
D03*
Y220548D02*
D03*
Y222516D02*
D03*
Y214643D02*
D03*
Y208737D02*
D03*
Y206768D02*
D03*
Y212674D02*
D03*
Y210705D02*
D03*
X302413Y228422D02*
D03*
Y220548D02*
D03*
Y218580D02*
D03*
Y226453D02*
D03*
Y222516D02*
D03*
Y216611D02*
D03*
Y214643D02*
D03*
Y224485D02*
D03*
Y208737D02*
D03*
Y206768D02*
D03*
Y212674D02*
D03*
Y210705D02*
D03*
X241587Y200863D02*
D03*
Y204800D02*
D03*
Y202832D02*
D03*
Y194957D02*
D03*
Y192989D02*
D03*
Y198895D02*
D03*
Y196926D02*
D03*
Y187083D02*
D03*
Y191021D02*
D03*
Y189052D02*
D03*
Y185115D02*
D03*
Y183147D02*
D03*
Y181178D02*
D03*
X302413Y204800D02*
D03*
Y198895D02*
D03*
Y196926D02*
D03*
Y202832D02*
D03*
Y200863D02*
D03*
Y191021D02*
D03*
Y189052D02*
D03*
Y194957D02*
D03*
Y192989D02*
D03*
Y183147D02*
D03*
Y181178D02*
D03*
Y187083D02*
D03*
Y185115D02*
D03*
D33*
X403200Y164900D02*
D03*
D34*
X410680Y168837D02*
D03*
Y166868D02*
D03*
Y164900D02*
D03*
Y162932D02*
D03*
Y160963D02*
D03*
X395720D02*
D03*
Y162932D02*
D03*
Y164900D02*
D03*
Y166868D02*
D03*
Y168837D02*
D03*
D35*
X407137Y157420D02*
D03*
X405168D02*
D03*
X403200D02*
D03*
X401231D02*
D03*
X399263D02*
D03*
Y172380D02*
D03*
X401231D02*
D03*
X403200D02*
D03*
X405168D02*
D03*
X407137D02*
D03*
M02*
